<?xml version="1.0" encoding="utf-8"?>
<!-- Generator: Adobe Illustrator 25.4.1, SVG Export Plug-In . SVG Version: 6.00 Build 0)  -->
<svg version="1.1" id="Capa_1" xmlns="http://www.w3.org/2000/svg" xmlns:xlink="http://www.w3.org/1999/xlink" x="0px" y="0px"
	 viewBox="0 0 90.7 90.7" style="enable-background:new 0 0 90.7 90.7;" xml:space="preserve">
<style type="text/css">
	.st0{fill:#828282;}
</style>
<path class="st0" d="M82,35c0-4.9-1.7-9.7-4.8-13.6c1.1-4.4,0.7-9-0.9-13.2c-0.3-0.8-1-1.4-1.8-1.7c-1.2-0.4-5.6-1.2-14.7,4.7
	c-3.9-1-7.9-1.5-12-1.4c-4.1-0.1-8.1,0.4-12,1.4c-9.3-6-14.2-5.1-15.2-4.8c-0.8,0.3-1.5,0.9-1.8,1.7c-1.7,4.2-2,8.8-1,13.2
	c-3.2,3.8-4.9,8.7-4.8,13.7c0,18.6,10.7,24.3,20.4,26.2c-0.5,1.2-0.8,2.5-1,3.8c0,0.1,0,0.3,0,0.4v5.2c-8.9,0.7-10.8-4.5-11-5.1
	c0-0.1-0.1-0.3-0.2-0.4c-1.7-3.5-4.7-6.2-8.4-7.5c-1.5-0.5-3.2,0.3-3.7,1.9c-0.5,1.5,0.3,3.2,1.9,3.7c2,0.7,3.7,2.2,4.8,4.1
	c1.2,3.8,6,9.9,16.6,9.2v4.9c0,1.6,1.3,2.9,2.9,2.9c1.6,0,2.9-1.3,2.9-2.9V65.8c0.2-1.7,1-3.3,2.1-4.6c1.2-1.1,1.2-3,0.1-4.1
	c-0.5-0.5-1.1-0.8-1.8-0.9C28.2,54.9,18.7,51.5,18.7,35c-0.1-4,1.4-8,4.3-10.8c0.8-0.8,1-2,0.7-3.1c-1-2.9-1.1-6-0.2-8.9
	c3.6,0.8,7,2.4,10,4.7c0.8,0.5,1.7,0.6,2.6,0.4c3.7-1.1,7.6-1.7,11.6-1.6c3.9-0.1,7.8,0.4,11.5,1.6c0.9,0.3,1.8,0.2,2.6-0.4
	c2.8-2.2,6.1-3.7,9.5-4.6c0.9,3,0.8,6.1-0.2,9c-0.3,1-0.1,2.1,0.6,2.9c2.8,3,4.4,6.9,4.4,11c0,16.6-10,20-19.8,21.2
	c-1.6,0.2-2.8,1.6-2.6,3.2c0.1,0.8,0.5,1.6,1.2,2c1,0.8,2.3,3,2.3,6.7v13.3c0,1.6,1.3,2.9,2.9,2.9s2.9-1.3,2.9-2.9V68.1
	c0-2.3-0.4-4.7-1.3-6.9C69.7,59.6,82,54.4,82,35z"/>
</svg>
